<svg height="1054" width="720" xmlns="http://www.w3.org/2000/svg">
<rect height="1054" fill="#555" width="720"></rect>
<text fill="#7f7" font-family="Courier New" font-size="12" xml:space="preserve">
<tspan x="10" y="26">5 megabytes installed</tspan>
<tspan x="10" y="42"></tspan>
<tspan x="10" y="58">node_modules</tspan>
<tspan x="10" y="74">└─┬ socket.io-rpc@1.1.3 </tspan>
<tspan x="10" y="90">  ├── co@4.6.0 </tspan>
<tspan x="10" y="106">  ├─┬ debug@2.6.4 </tspan>
<tspan x="10" y="122">  │ └── ms@0.7.3 </tspan>
<tspan x="10" y="138">  ├── o.extend@1.0.1 </tspan>
<tspan x="10" y="154">  ├── serialize-error@1.1.0 </tspan>
<tspan x="10" y="170">  ├─┬ socket.io@1.7.3 </tspan>
<tspan x="10" y="186">  │ ├─┬ debug@2.3.3 </tspan>
<tspan x="10" y="202">  │ │ └── ms@0.7.2 </tspan>
<tspan x="10" y="218">  │ ├─┬ engine.io@1.8.3 </tspan>
<tspan x="10" y="234">  │ │ ├─┬ accepts@1.3.3 </tspan>
<tspan x="10" y="250">  │ │ │ ├─┬ mime-types@2.1.15 </tspan>
<tspan x="10" y="266">  │ │ │ │ └── mime-db@1.27.0 </tspan>
<tspan x="10" y="282">  │ │ │ └── negotiator@0.6.1 </tspan>
<tspan x="10" y="298">  │ │ ├── base64id@1.0.0 </tspan>
<tspan x="10" y="314">  │ │ ├── cookie@0.3.1 </tspan>
<tspan x="10" y="330">  │ │ ├─┬ debug@2.3.3 </tspan>
<tspan x="10" y="346">  │ │ │ └── ms@0.7.2 </tspan>
<tspan x="10" y="362">  │ │ ├─┬ engine.io-parser@1.3.2 </tspan>
<tspan x="10" y="378">  │ │ │ ├── after@0.8.2 </tspan>
<tspan x="10" y="394">  │ │ │ ├── arraybuffer.slice@0.0.6 </tspan>
<tspan x="10" y="410">  │ │ │ ├── base64-arraybuffer@0.1.5 </tspan>
<tspan x="10" y="426">  │ │ │ ├── blob@0.0.4 </tspan>
<tspan x="10" y="442">  │ │ │ └── wtf-8@1.0.0 </tspan>
<tspan x="10" y="458">  │ │ └─┬ ws@1.1.2 </tspan>
<tspan x="10" y="474">  │ │   ├── options@0.0.6 </tspan>
<tspan x="10" y="490">  │ │   └── ultron@1.0.2 </tspan>
<tspan x="10" y="506">  │ ├─┬ has-binary@0.1.7 </tspan>
<tspan x="10" y="522">  │ │ └── isarray@0.0.1 </tspan>
<tspan x="10" y="538">  │ ├── object-assign@4.1.0 </tspan>
<tspan x="10" y="554">  │ ├─┬ socket.io-adapter@0.5.0 </tspan>
<tspan x="10" y="570">  │ │ └─┬ debug@2.3.3 </tspan>
<tspan x="10" y="586">  │ │   └── ms@0.7.2 </tspan>
<tspan x="10" y="602">  │ ├─┬ socket.io-client@1.7.3 </tspan>
<tspan x="10" y="618">  │ │ ├── backo2@1.0.2 </tspan>
<tspan x="10" y="634">  │ │ ├── component-bind@1.0.0 </tspan>
<tspan x="10" y="650">  │ │ ├── component-emitter@1.2.1 </tspan>
<tspan x="10" y="666">  │ │ ├─┬ debug@2.3.3 </tspan>
<tspan x="10" y="682">  │ │ │ └── ms@0.7.2 </tspan>
<tspan x="10" y="698">  │ │ ├─┬ engine.io-client@1.8.3 </tspan>
<tspan x="10" y="714">  │ │ │ ├── component-emitter@1.2.1 </tspan>
<tspan x="10" y="730">  │ │ │ ├── component-inherit@0.0.3 </tspan>
<tspan x="10" y="746">  │ │ │ ├─┬ debug@2.3.3 </tspan>
<tspan x="10" y="762">  │ │ │ │ └── ms@0.7.2 </tspan>
<tspan x="10" y="778">  │ │ │ ├── has-cors@1.1.0 </tspan>
<tspan x="10" y="794">  │ │ │ ├── parsejson@0.0.3 </tspan>
<tspan x="10" y="810">  │ │ │ ├── parseqs@0.0.5 </tspan>
<tspan x="10" y="826">  │ │ │ ├── xmlhttprequest-ssl@1.5.3 </tspan>
<tspan x="10" y="842">  │ │ │ └── yeast@0.1.2 </tspan>
<tspan x="10" y="858">  │ │ ├── indexof@0.0.1 </tspan>
<tspan x="10" y="874">  │ │ ├── object-component@0.0.3 </tspan>
<tspan x="10" y="890">  │ │ ├─┬ parseuri@0.0.5 </tspan>
<tspan x="10" y="906">  │ │ │ └─┬ better-assert@1.0.2 </tspan>
<tspan x="10" y="922">  │ │ │   └── callsite@1.0.0 </tspan>
<tspan x="10" y="938">  │ │ └── to-array@0.1.4 </tspan>
<tspan x="10" y="954">  │ └─┬ socket.io-parser@2.3.1 </tspan>
<tspan x="10" y="970">  │   ├── component-emitter@1.1.2 </tspan>
<tspan x="10" y="986">  │   ├─┬ debug@2.2.0 </tspan>
<tspan x="10" y="1002">  │   │ └── ms@0.7.1 </tspan>
<tspan x="10" y="1018">  │   └── json3@3.3.2 </tspan>
<tspan x="10" y="1034">  └── traverse@0.6.6</tspan>
</text>
</svg>
